<?xml version="1.0" encoding="UTF-8" ?>
<svg version="1.1" width="64" height="64" xmlns="http://www.w3.org/2000/svg" shape-rendering="crispEdges">
<rect x="32" y="2" width="1" height="3" fill="#0AFFD7" opacity="0.450980" />
<rect x="31" y="3" width="1" height="3" fill="#0AFFD7" opacity="0.450980" />
<rect x="33" y="4" width="1" height="1" fill="#0AFFD7" opacity="0.450980" />
<rect x="32" y="6" width="1" height="3" fill="#0AFFD7" opacity="0.450980" />
<rect x="55" y="7" width="2" height="2" fill="#0AFFD7" opacity="0.450980" />
<rect x="54" y="8" width="1" height="2" fill="#0AFFD7" opacity="0.450980" />
<rect x="55" y="9" width="1" height="1" fill="#0AFFD7" opacity="0.450980" />
<rect x="32" y="10" width="1" height="2" fill="#0AFFD7" opacity="0.450980" />
<rect x="53" y="10" width="1" height="1" fill="#0AFFD7" opacity="0.450980" />
<rect x="52" y="11" width="1" height="1" fill="#0AFFD7" opacity="0.450980" />
<rect x="27" y="12" width="10" height="1" fill="#0AFFD7" />
<rect x="13" y="13" width="2" height="2" fill="#0AFFD7" opacity="0.450980" />
<rect x="24" y="13" width="4" height="1" fill="#0AFFD7" />
<rect x="28" y="13" width="1" height="1" fill="#2FF9FF" />
<rect x="29" y="13" width="2" height="2" fill="#0AFFD7" />
<rect x="31" y="13" width="1" height="1" fill="#2FF9FF" />
<rect x="32" y="13" width="2" height="1" fill="#0AFFD7" />
<rect x="34" y="13" width="2" height="1" fill="#12B484" />
<rect x="36" y="13" width="4" height="1" fill="#0AFFD7" />
<rect x="50" y="13" width="1" height="1" fill="#0AFFD7" opacity="0.450980" />
<rect x="15" y="14" width="1" height="2" fill="#0AFFD7" opacity="0.450980" />
<rect x="22" y="14" width="2" height="1" fill="#0AFFD7" />
<rect x="24" y="14" width="3" height="1" fill="#12B484" />
<rect x="27" y="14" width="2" height="1" fill="#0AFFD7" />
<rect x="31" y="14" width="2" height="1" fill="#0AFFD7" />
<rect x="33" y="14" width="2" height="1" fill="#2FF9FF" />
<rect x="35" y="14" width="1" height="1" fill="#0AFFD7" />
<rect x="36" y="14" width="1" height="1" fill="#12B484" />
<rect x="37" y="14" width="1" height="1" fill="#0AFFD7" />
<rect x="38" y="14" width="2" height="1" fill="#12B484" />
<rect x="40" y="14" width="2" height="1" fill="#0AFFD7" />
<rect x="49" y="14" width="1" height="1" fill="#0AFFD7" opacity="0.450980" />
<rect x="22" y="15" width="2" height="1" fill="#12B484" />
<rect x="24" y="15" width="3" height="1" fill="#0AFFD7" />
<rect x="27" y="15" width="3" height="2" fill="#12B484" />
<rect x="30" y="15" width="1" height="1" fill="#0AFFD7" />
<rect x="31" y="15" width="1" height="1" fill="#12B484" />
<rect x="32" y="15" width="3" height="1" fill="#0AFFD7" />
<rect x="35" y="15" width="2" height="1" fill="#2FF9FF" />
<rect x="37" y="15" width="1" height="1" fill="#12B484" />
<rect x="38" y="15" width="3" height="1" fill="#0AFFD7" />
<rect x="41" y="15" width="1" height="1" fill="#12B484" />
<rect x="16" y="16" width="1" height="1" fill="#0AFFD7" opacity="0.450980" />
<rect x="21" y="16" width="3" height="1" fill="#0AFFD7" />
<rect x="24" y="16" width="3" height="4" fill="#12B484" />
<rect x="30" y="16" width="1" height="3" fill="#12B484" />
<rect x="31" y="16" width="3" height="1" fill="#096248" />
<rect x="34" y="16" width="1" height="1" fill="#12B484" />
<rect x="35" y="16" width="1" height="1" fill="#0AFFD7" />
<rect x="36" y="16" width="1" height="1" fill="#2FF9FF" />
<rect x="37" y="16" width="1" height="1" fill="#0AFFD7" />
<rect x="38" y="16" width="2" height="2" fill="#12B484" />
<rect x="40" y="16" width="3" height="1" fill="#0AFFD7" />
<rect x="47" y="16" width="1" height="1" fill="#0AFFD7" opacity="0.450980" />
<rect x="17" y="17" width="1" height="1" fill="#0AFFD7" opacity="0.450980" />
<rect x="20" y="17" width="3" height="1" fill="#0AFFD7" />
<rect x="23" y="17" width="1" height="4" fill="#12B484" />
<rect x="27" y="17" width="2" height="1" fill="#096248" />
<rect x="29" y="17" width="1" height="1" fill="#12B484" />
<rect x="31" y="17" width="3" height="1" fill="#12B484" />
<rect x="34" y="17" width="1" height="1" fill="#096248" />
<rect x="35" y="17" width="1" height="3" fill="#12B484" />
<rect x="36" y="17" width="1" height="1" fill="#0AFFD7" />
<rect x="37" y="17" width="1" height="2" fill="#2FF9FF" />
<rect x="40" y="17" width="2" height="1" fill="#12B484" />
<rect x="42" y="17" width="2" height="1" fill="#0AFFD7" />
<rect x="19" y="18" width="1" height="1" fill="#0AFFD7" />
<rect x="20" y="18" width="1" height="1" fill="#12B484" />
<rect x="21" y="18" width="1" height="1" fill="#0AFFD7" />
<rect x="22" y="18" width="1" height="3" fill="#12B484" />
<rect x="27" y="18" width="2" height="1" fill="#12B484" />
<rect x="29" y="18" width="1" height="3" fill="#096248" />
<rect x="31" y="18" width="2" height="2" fill="#096248" />
<rect x="33" y="18" width="2" height="1" fill="#12B484" />
<rect x="36" y="18" width="1" height="2" fill="#12B484" />
<rect x="38" y="18" width="2" height="2" fill="#0AFFD7" />
<rect x="40" y="18" width="1" height="2" fill="#096248" />
<rect x="41" y="18" width="2" height="1" fill="#12B484" />
<rect x="43" y="18" width="2" height="1" fill="#0AFFD7" />
<rect x="18" y="19" width="2" height="1" fill="#12B484" />
<rect x="20" y="19" width="1" height="1" fill="#0AFFD7" />
<rect x="21" y="19" width="1" height="4" fill="#12B484" />
<rect x="27" y="19" width="1" height="1" fill="#096248" />
<rect x="28" y="19" width="1" height="1" fill="#000000" />
<rect x="30" y="19" width="1" height="1" fill="#096248" />
<rect x="33" y="19" width="2" height="2" fill="#096248" />
<rect x="37" y="19" width="1" height="1" fill="#0AFFD7" />
<rect x="41" y="19" width="1" height="3" fill="#096248" />
<rect x="42" y="19" width="2" height="2" fill="#12B484" />
<rect x="44" y="19" width="2" height="1" fill="#0AFFD7" />
<rect x="17" y="20" width="3" height="1" fill="#0AFFD7" />
<rect x="20" y="20" width="1" height="1" fill="#12B484" />
<rect x="24" y="20" width="3" height="1" fill="#096248" />
<rect x="27" y="20" width="1" height="1" fill="#000000" />
<rect x="28" y="20" width="1" height="2" fill="#096248" />
<rect x="30" y="20" width="2" height="1" fill="#000000" />
<rect x="32" y="20" width="1" height="1" fill="#096248" />
<rect x="35" y="20" width="2" height="2" fill="#096248" />
<rect x="37" y="20" width="1" height="2" fill="#12B484" />
<rect x="38" y="20" width="1" height="1" fill="#0AFFD7" />
<rect x="39" y="20" width="1" height="1" fill="#2FF9FF" />
<rect x="40" y="20" width="1" height="2" fill="#0AFFD7" />
<rect x="44" y="20" width="1" height="4" fill="#12B484" />
<rect x="45" y="20" width="2" height="1" fill="#0AFFD7" />
<rect x="17" y="21" width="2" height="1" fill="#0AFFD7" />
<rect x="19" y="21" width="1" height="4" fill="#12B484" />
<rect x="20" y="21" width="1" height="1" fill="#096248" />
<rect x="22" y="21" width="2" height="3" fill="#096248" />
<rect x="24" y="21" width="2" height="1" fill="#000000" />
<rect x="26" y="21" width="2" height="1" fill="#096248" />
<rect x="29" y="21" width="1" height="22" fill="#000000" />
<rect x="30" y="21" width="2" height="1" fill="#096248" />
<rect x="32" y="21" width="3" height="1" fill="#000000" />
<rect x="38" y="21" width="1" height="2" fill="#12B484" />
<rect x="39" y="21" width="1" height="2" fill="#0AFFD7" />
<rect x="42" y="21" width="1" height="8" fill="#096248" />
<rect x="43" y="21" width="1" height="2" fill="#12B484" />
<rect x="45" y="21" width="1" height="6" fill="#12B484" />
<rect x="46" y="21" width="1" height="1" fill="#0AFFD7" />
<rect x="17" y="22" width="2" height="4" fill="#12B484" />
<rect x="20" y="22" width="1" height="1" fill="#12B484" />
<rect x="24" y="22" width="2" height="2" fill="#096248" />
<rect x="26" y="22" width="1" height="17" fill="#000000" />
<rect x="27" y="22" width="1" height="1" fill="#096248" />
<rect x="28" y="22" width="1" height="20" fill="#000000" />
<rect x="30" y="22" width="2" height="19" fill="#000000" />
<rect x="32" y="22" width="2" height="1" fill="#096248" />
<rect x="34" y="22" width="3" height="18" fill="#000000" />
<rect x="37" y="22" width="1" height="3" fill="#096248" />
<rect x="40" y="22" width="1" height="1" fill="#2FF9FF" />
<rect x="41" y="22" width="1" height="2" fill="#12B484" />
<rect x="46" y="22" width="1" height="5" fill="#12B484" />
<rect x="16" y="23" width="1" height="2" fill="#0AFFD7" />
<rect x="20" y="23" width="2" height="4" fill="#096248" />
<rect x="27" y="23" width="1" height="19" fill="#000000" />
<rect x="32" y="23" width="2" height="18" fill="#000000" />
<rect x="38" y="23" width="2" height="3" fill="#096248" />
<rect x="40" y="23" width="1" height="1" fill="#0AFFD7" />
<rect x="43" y="23" width="1" height="5" fill="#096248" />
<rect x="47" y="23" width="1" height="4" fill="#0AFFD7" />
<rect x="22" y="24" width="1" height="2" fill="#000000" />
<rect x="23" y="24" width="1" height="1" fill="#096248" />
<rect x="24" y="24" width="2" height="2" fill="#000000" />
<rect x="40" y="24" width="1" height="2" fill="#12B484" />
<rect x="41" y="24" width="1" height="3" fill="#0AFFD7" />
<rect x="44" y="24" width="1" height="13" fill="#096248" />
<rect x="16" y="25" width="1" height="7" fill="#12B484" />
<rect x="19" y="25" width="1" height="4" fill="#096248" />
<rect x="23" y="25" width="1" height="11" fill="#000000" />
<rect x="37" y="25" width="1" height="12" fill="#000000" />
<rect x="15" y="26" width="1" height="4" fill="#0AFFD7" />
<rect x="17" y="26" width="2" height="4" fill="#096248" />
<rect x="22" y="26" width="1" height="1" fill="#2FF9FF" />
<rect x="24" y="26" width="2" height="1" fill="#096248" />
<rect x="38" y="26" width="2" height="13" fill="#000000" />
<rect x="40" y="26" width="1" height="1" fill="#096248" />
<rect x="48" y="26" width="1" height="8" fill="#0AFFD7" />
<rect x="20" y="27" width="1" height="1" fill="#096248" />
<rect x="21" y="27" width="1" height="2" fill="#2FF9FF" />
<rect x="22" y="27" width="1" height="1" fill="#000000" />
<rect x="24" y="27" width="2" height="15" fill="#000000" />
<rect x="40" y="27" width="2" height="10" fill="#000000" />
<rect x="45" y="27" width="2" height="7" fill="#096248" />
<rect x="47" y="27" width="1" height="4" fill="#12B484" />
<rect x="20" y="28" width="1" height="2" fill="#2FF9FF" />
<rect x="22" y="28" width="1" height="1" fill="#12B484" />
<rect x="43" y="28" width="1" height="1" fill="#000000" />
<rect x="19" y="29" width="1" height="1" fill="#0AFFD7" />
<rect x="21" y="29" width="1" height="2" fill="#12B484" />
<rect x="22" y="29" width="1" height="8" fill="#000000" />
<rect x="42" y="29" width="1" height="6" fill="#000000" />
<rect x="43" y="29" width="1" height="4" fill="#096248" />
<rect x="5" y="30" width="2" height="1" fill="#0AFFD7" opacity="0.450980" />
<rect x="15" y="30" width="1" height="1" fill="#12B484" />
<rect x="17" y="30" width="2" height="1" fill="#0AFFD7" />
<rect x="19" y="30" width="1" height="1" fill="#2FF9FF" />
<rect x="20" y="30" width="1" height="2" fill="#12B484" />
<rect x="4" y="31" width="1" height="1" fill="#0AFFD7" opacity="0.450980" />
<rect x="6" y="31" width="3" height="1" fill="#0AFFD7" opacity="0.450980" />
<rect x="10" y="31" width="1" height="1" fill="#0AFFD7" opacity="0.450980" />
<rect x="12" y="31" width="1" height="1" fill="#0AFFD7" opacity="0.450980" />
<rect x="14" y="31" width="1" height="1" fill="#0AFFD7" opacity="0.450980" />
<rect x="15" y="31" width="1" height="8" fill="#0AFFD7" />
<rect x="17" y="31" width="1" height="2" fill="#0AFFD7" />
<rect x="18" y="31" width="1" height="2" fill="#2FF9FF" />
<rect x="19" y="31" width="1" height="11" fill="#12B484" />
<rect x="21" y="31" width="1" height="9" fill="#096248" />
<rect x="47" y="31" width="1" height="1" fill="#0AFFD7" />
<rect x="59" y="31" width="2" height="1" fill="#0AFFD7" opacity="0.450980" />
<rect x="16" y="32" width="1" height="1" fill="#096248" />
<rect x="20" y="32" width="1" height="5" fill="#096248" />
<rect x="47" y="32" width="1" height="1" fill="#12B484" />
<rect x="51" y="32" width="1" height="1" fill="#0AFFD7" opacity="0.450980" />
<rect x="53" y="32" width="1" height="1" fill="#0AFFD7" opacity="0.450980" />
<rect x="55" y="32" width="4" height="1" fill="#0AFFD7" opacity="0.450980" />
<rect x="60" y="32" width="2" height="1" fill="#0AFFD7" opacity="0.450980" />
<rect x="16" y="33" width="1" height="1" fill="#0AFFD7" />
<rect x="17" y="33" width="1" height="2" fill="#2FF9FF" />
<rect x="18" y="33" width="1" height="6" fill="#12B484" />
<rect x="43" y="33" width="1" height="1" fill="#000000" />
<rect x="47" y="33" width="1" height="4" fill="#0AFFD7" />
<rect x="16" y="34" width="1" height="1" fill="#12B484" />
<rect x="43" y="34" width="1" height="5" fill="#096248" />
<rect x="45" y="34" width="2" height="4" fill="#12B484" />
<rect x="48" y="34" width="1" height="1" fill="#2FF9FF" />
<rect x="16" y="35" width="1" height="7" fill="#0AFFD7" />
<rect x="17" y="35" width="1" height="2" fill="#12B484" />
<rect x="42" y="35" width="1" height="1" fill="#096248" />
<rect x="48" y="35" width="1" height="4" fill="#0AFFD7" />
<rect x="23" y="36" width="1" height="1" fill="#096248" />
<rect x="42" y="36" width="1" height="1" fill="#000000" />
<rect x="17" y="37" width="1" height="1" fill="#2FF9FF" />
<rect x="20" y="37" width="1" height="6" fill="#12B484" />
<rect x="22" y="37" width="1" height="1" fill="#096248" />
<rect x="23" y="37" width="1" height="1" fill="#000000" />
<rect x="37" y="37" width="1" height="2" fill="#096248" />
<rect x="40" y="37" width="1" height="1" fill="#000000" />
<rect x="41" y="37" width="2" height="1" fill="#096248" />
<rect x="44" y="37" width="1" height="3" fill="#12B484" />
<rect x="47" y="37" width="1" height="1" fill="#2FF9FF" />
<rect x="17" y="38" width="1" height="1" fill="#096248" />
<rect x="22" y="38" width="1" height="2" fill="#000000" />
<rect x="23" y="38" width="1" height="2" fill="#096248" />
<rect x="40" y="38" width="1" height="1" fill="#096248" />
<rect x="41" y="38" width="1" height="1" fill="#000000" />
<rect x="42" y="38" width="1" height="2" fill="#096248" />
<rect x="45" y="38" width="1" height="2" fill="#12B484" />
<rect x="46" y="38" width="2" height="2" fill="#0AFFD7" />
<rect x="17" y="39" width="1" height="1" fill="#0AFFD7" />
<rect x="18" y="39" width="1" height="1" fill="#096248" />
<rect x="26" y="39" width="1" height="1" fill="#096248" />
<rect x="37" y="39" width="1" height="1" fill="#000000" />
<rect x="38" y="39" width="2" height="3" fill="#096248" />
<rect x="40" y="39" width="1" height="1" fill="#000000" />
<rect x="41" y="39" width="1" height="2" fill="#096248" />
<rect x="43" y="39" width="1" height="2" fill="#12B484" />
<rect x="17" y="40" width="1" height="1" fill="#2FF9FF" />
<rect x="18" y="40" width="1" height="1" fill="#12B484" />
<rect x="21" y="40" width="1" height="4" fill="#12B484" />
<rect x="22" y="40" width="1" height="3" fill="#096248" />
<rect x="23" y="40" width="1" height="1" fill="#000000" />
<rect x="26" y="40" width="1" height="1" fill="#000000" />
<rect x="34" y="40" width="2" height="1" fill="#000000" />
<rect x="36" y="40" width="2" height="2" fill="#096248" />
<rect x="40" y="40" width="1" height="2" fill="#096248" />
<rect x="42" y="40" width="1" height="2" fill="#12B484" />
<rect x="44" y="40" width="1" height="1" fill="#0AFFD7" />
<rect x="45" y="40" width="2" height="1" fill="#2FF9FF" />
<rect x="47" y="40" width="1" height="2" fill="#0AFFD7" />
<rect x="17" y="41" width="2" height="4" fill="#0AFFD7" />
<rect x="23" y="41" width="1" height="3" fill="#096248" />
<rect x="26" y="41" width="1" height="5" fill="#096248" />
<rect x="30" y="41" width="2" height="1" fill="#096248" />
<rect x="32" y="41" width="1" height="1" fill="#000000" />
<rect x="33" y="41" width="3" height="1" fill="#096248" />
<rect x="41" y="41" width="1" height="1" fill="#12B484" />
<rect x="43" y="41" width="1" height="3" fill="#0AFFD7" />
<rect x="44" y="41" width="1" height="1" fill="#2FF9FF" />
<rect x="45" y="41" width="2" height="1" fill="#0AFFD7" />
<rect x="19" y="42" width="1" height="1" fill="#2FF9FF" />
<rect x="24" y="42" width="2" height="3" fill="#096248" />
<rect x="27" y="42" width="2" height="1" fill="#096248" />
<rect x="30" y="42" width="1" height="2" fill="#000000" />
<rect x="31" y="42" width="1" height="1" fill="#096248" />
<rect x="32" y="42" width="1" height="1" fill="#0AFFD7" />
<rect x="33" y="42" width="2" height="1" fill="#2FF9FF" />
<rect x="35" y="42" width="3" height="1" fill="#12B484" />
<rect x="38" y="42" width="1" height="1" fill="#0AFFD7" />
<rect x="39" y="42" width="1" height="1" fill="#12B484" />
<rect x="40" y="42" width="2" height="1" fill="#0AFFD7" />
<rect x="42" y="42" width="1" height="1" fill="#2FF9FF" />
<rect x="44" y="42" width="1" height="1" fill="#0AFFD7" />
<rect x="45" y="42" width="2" height="1" fill="#12B484" />
<rect x="19" y="43" width="2" height="1" fill="#0AFFD7" />
<rect x="22" y="43" width="1" height="2" fill="#12B484" />
<rect x="27" y="43" width="1" height="1" fill="#000000" />
<rect x="28" y="43" width="2" height="1" fill="#096248" />
<rect x="31" y="43" width="2" height="1" fill="#000000" />
<rect x="33" y="43" width="2" height="1" fill="#12B484" />
<rect x="35" y="43" width="2" height="1" fill="#0AFFD7" />
<rect x="37" y="43" width="5" height="1" fill="#2FF9FF" />
<rect x="42" y="43" width="1" height="1" fill="#0AFFD7" />
<rect x="44" y="43" width="1" height="2" fill="#12B484" />
<rect x="45" y="43" width="2" height="2" fill="#0AFFD7" />
<rect x="19" y="44" width="1" height="3" fill="#0AFFD7" />
<rect x="20" y="44" width="1" height="1" fill="#12B484" />
<rect x="21" y="44" width="1" height="1" fill="#0AFFD7" />
<rect x="23" y="44" width="1" height="2" fill="#12B484" />
<rect x="27" y="44" width="1" height="3" fill="#096248" />
<rect x="28" y="44" width="1" height="1" fill="#000000" />
<rect x="29" y="44" width="3" height="3" fill="#096248" />
<rect x="32" y="44" width="2" height="1" fill="#000000" />
<rect x="34" y="44" width="3" height="1" fill="#12B484" />
<rect x="37" y="44" width="1" height="1" fill="#0AFFD7" />
<rect x="38" y="44" width="1" height="3" fill="#12B484" />
<rect x="39" y="44" width="3" height="1" fill="#0AFFD7" />
<rect x="42" y="44" width="2" height="1" fill="#12B484" />
<rect x="18" y="45" width="1" height="1" fill="#0AFFD7" />
<rect x="20" y="45" width="1" height="3" fill="#0AFFD7" />
<rect x="21" y="45" width="1" height="1" fill="#12B484" />
<rect x="22" y="45" width="1" height="2" fill="#0AFFD7" />
<rect x="24" y="45" width="2" height="2" fill="#12B484" />
<rect x="28" y="45" width="1" height="1" fill="#096248" />
<rect x="32" y="45" width="4" height="2" fill="#096248" />
<rect x="36" y="45" width="2" height="1" fill="#12B484" />
<rect x="39" y="45" width="3" height="1" fill="#12B484" />
<rect x="42" y="45" width="1" height="1" fill="#0AFFD7" />
<rect x="43" y="45" width="1" height="1" fill="#12B484" />
<rect x="44" y="45" width="2" height="1" fill="#0AFFD7" />
<rect x="21" y="46" width="1" height="3" fill="#0AFFD7" />
<rect x="23" y="46" width="1" height="1" fill="#0AFFD7" />
<rect x="26" y="46" width="1" height="1" fill="#12B484" />
<rect x="28" y="46" width="1" height="2" fill="#12B484" />
<rect x="36" y="46" width="2" height="1" fill="#096248" />
<rect x="39" y="46" width="1" height="1" fill="#12B484" />
<rect x="40" y="46" width="2" height="1" fill="#0AFFD7" />
<rect x="42" y="46" width="1" height="1" fill="#12B484" />
<rect x="43" y="46" width="2" height="1" fill="#0AFFD7" />
<rect x="46" y="46" width="1" height="1" fill="#0AFFD7" opacity="0.450980" />
<rect x="22" y="47" width="2" height="1" fill="#12B484" />
<rect x="24" y="47" width="3" height="1" fill="#0AFFD7" />
<rect x="27" y="47" width="1" height="1" fill="#12B484" />
<rect x="29" y="47" width="2" height="1" fill="#12B484" />
<rect x="31" y="47" width="1" height="1" fill="#096248" />
<rect x="32" y="47" width="1" height="2" fill="#12B484" />
<rect x="33" y="47" width="2" height="1" fill="#096248" />
<rect x="35" y="47" width="3" height="1" fill="#12B484" />
<rect x="38" y="47" width="3" height="2" fill="#0AFFD7" />
<rect x="41" y="47" width="1" height="1" fill="#12B484" />
<rect x="42" y="47" width="2" height="1" fill="#0AFFD7" />
<rect x="47" y="47" width="1" height="2" fill="#0AFFD7" opacity="0.450980" />
<rect x="22" y="48" width="2" height="1" fill="#0AFFD7" />
<rect x="24" y="48" width="3" height="1" fill="#12B484" />
<rect x="27" y="48" width="3" height="1" fill="#0AFFD7" />
<rect x="30" y="48" width="2" height="1" fill="#12B484" />
<rect x="33" y="48" width="2" height="1" fill="#12B484" />
<rect x="35" y="48" width="3" height="2" fill="#0AFFD7" />
<rect x="41" y="48" width="2" height="1" fill="#0AFFD7" />
<rect x="48" y="48" width="1" height="1" fill="#0AFFD7" opacity="0.450980" />
<rect x="14" y="49" width="1" height="1" fill="#0AFFD7" opacity="0.450980" />
<rect x="22" y="49" width="2" height="1" fill="#12B484" />
<rect x="24" y="49" width="4" height="1" fill="#0AFFD7" />
<rect x="28" y="49" width="2" height="1" fill="#12B484" />
<rect x="30" y="49" width="5" height="1" fill="#0AFFD7" />
<rect x="38" y="49" width="4" height="1" fill="#12B484" />
<rect x="22" y="50" width="1" height="1" fill="#0AFFD7" />
<rect x="23" y="50" width="4" height="1" fill="#12B484" />
<rect x="27" y="50" width="3" height="1" fill="#0AFFD7" />
<rect x="30" y="50" width="2" height="1" fill="#12B484" />
<rect x="32" y="50" width="1" height="1" fill="#096248" />
<rect x="33" y="50" width="7" height="1" fill="#12B484" />
<rect x="40" y="50" width="2" height="1" fill="#0AFFD7" />
<rect x="12" y="51" width="1" height="1" fill="#0AFFD7" opacity="0.450980" />
<rect x="24" y="51" width="3" height="1" fill="#0AFFD7" />
<rect x="27" y="51" width="2" height="1" fill="#12B484" />
<rect x="29" y="51" width="4" height="1" fill="#0AFFD7" />
<rect x="33" y="51" width="3" height="1" fill="#12B484" />
<rect x="36" y="51" width="4" height="1" fill="#0AFFD7" />
<rect x="11" y="52" width="1" height="1" fill="#0AFFD7" opacity="0.450980" />
<rect x="27" y="52" width="2" height="1" fill="#0AFFD7" />
<rect x="29" y="52" width="1" height="1" fill="#12B484" />
<rect x="30" y="52" width="1" height="1" fill="#0AFFD7" />
<rect x="31" y="52" width="1" height="1" fill="#12B484" />
<rect x="32" y="52" width="5" height="1" fill="#0AFFD7" />
<rect x="9" y="54" width="1" height="1" fill="#0AFFD7" opacity="0.450980" />
<rect x="8" y="55" width="1" height="1" fill="#0AFFD7" opacity="0.450980" />
<rect x="7" y="56" width="1" height="1" fill="#0AFFD7" opacity="0.450980" />
<rect x="6" y="57" width="1" height="1" fill="#0AFFD7" opacity="0.450980" />
<rect x="3" y="58" width="3" height="2" fill="#0AFFD7" opacity="0.450980" />
<rect x="3" y="60" width="2" height="1" fill="#0AFFD7" opacity="0.450980" />
<rect x="2" y="61" width="1" height="1" fill="#0AFFD7" opacity="0.450980" />
</svg>